<?xml version="1.0" encoding="utf-8"?>
<!-- Generator: Adobe Illustrator 24.2.0, SVG Export Plug-In . SVG Version: 6.00 Build 0)  -->
<svg version="1.1" xmlns="http://www.w3.org/2000/svg" xmlns:xlink="http://www.w3.org/1999/xlink" x="0px" y="0px"
	 viewBox="0 0 1227 311" style="enable-background:new 0 0 1227 311;" xml:space="preserve">
<style type="text/css">
	.st0{display:none;}
	.st1{display:inline;fill:#4F5792;}
	.st2{fill:#FFFFFF;}
	.st3{opacity:0.5;}
	.st4{clip-path:url(#SVGID_2_);fill:#FFFFFF;}
	.st5{clip-path:url(#SVGID_4_);fill:#FFFFFF;}
	.st6{opacity:0.66;}
	.st7{clip-path:url(#SVGID_6_);fill:#FFFFFF;}
</style>
<g id="Layer_2" class="st0">
	<rect class="st1" width="1227" height="377"/>
</g>
<g id="Layer_3">
	<path class="st2" d="M261.9,200.7c9.4,2.3,18.7,5.3,27.6,9.6c8.7,4.3,17.6,9.7,23.1,18.9c2.8,4.6,3.7,10.5,2.5,15.9
		c-1.2,5.5-4.5,10-8,13.8c-7.3,7.6-16.2,12.5-25.2,16.7c-18.2,8.3-37.5,12.8-56.8,16c-19.4,3.1-39,4.4-58.6,4.5
		c-19.6-0.1-39.2-1.4-58.6-4.5c-19.3-3.3-38.7-7.8-56.8-16c-9-4.2-18-9.1-25.2-16.7c-3.5-3.8-6.7-8.4-8-13.9
		c-1.3-5.4-0.3-11.4,2.5-16c5.6-9.2,14.4-14.5,23.1-18.9c8.8-4.3,18.2-7.3,27.6-9.6c-9.1,3.4-18,7.2-26.3,12
		c-8.1,4.8-16.1,10.9-20,18.8c-2,3.9-2.4,8.2-1.2,12.1c1.1,4,3.9,7.5,7.1,10.6c6.6,6.1,15,10.5,23.6,14.1
		c17.5,7,36.2,11.1,55.1,13.8c18.9,2.7,38,3.9,57.1,3.9c19.1,0.1,38.3-1.2,57.1-3.8c18.9-2.6,37.6-6.8,55.1-13.8
		c8.6-3.6,17.1-8,23.6-14.1c3.2-3.1,5.9-6.6,7.1-10.6c1.2-3.9,0.8-8.2-1.2-12.1c-3.9-7.9-11.8-14-20-18.8
		C279.9,207.9,271,204.1,261.9,200.7"/>
	<polygon class="st2" points="165.9,107.3 127.5,136.4 165.9,165.6 204.4,136.4 	"/>
	<g class="st3">
		<g>
			<defs>
				<rect id="SVGID_1_" x="106.4" y="-26.3" width="234.3" height="285.8"/>
			</defs>
			<clipPath id="SVGID_2_">
				<use xlink:href="#SVGID_1_"  style="overflow:visible;"/>
			</clipPath>
			<path class="st4" d="M235.2,138.2c0-46.6,15.5-84.3,41.5-111.1c1.5-2.5,3-5,4.6-7.1l-115.3,87.3l38.4,29.1l-38.4,29.1l115.3,87.3
				c-0.3-0.4-0.6-0.8-0.9-1.2C251.3,225.4,235.2,186.3,235.2,138.2"/>
		</g>
	</g>
	<g class="st3">
		<g>
			<defs>
				<rect id="SVGID_3_" x="-7.9" y="-26.3" width="234.3" height="285.8"/>
			</defs>
			<clipPath id="SVGID_4_">
				<use xlink:href="#SVGID_3_"  style="overflow:visible;"/>
			</clipPath>
			<path class="st5" d="M97.7,138.2c0-46.6-15.5-84.3-41.5-111.1c-1.5-2.5-3-5-4.6-7.1l115.3,87.3l-38.4,29.1l38.4,29.1L51.6,252.9
				c0.3-0.4,0.6-0.8,0.9-1.2C81.6,225.4,97.7,186.3,97.7,138.2"/>
		</g>
	</g>
	<g class="st6">
		<g>
			<defs>
				<rect id="SVGID_5_" x="443.2" y="177.6" width="792.7" height="87.7"/>
			</defs>
			<clipPath id="SVGID_6_">
				<use xlink:href="#SVGID_5_"  style="overflow:visible;"/>
			</clipPath>
			<path class="st7" d="M1175.5,253.6c-1.8,0.9-4.4,1.4-7.1,1.4c-8.2,0-12.9-5.3-12.9-13.6c0-8.9,5.2-13.9,13.1-13.9
				c2.8,0,5.1,0.6,6.8,1.4l1.1-3.5c-1.2-0.6-3.8-1.5-8-1.5c-10.5,0-17.6,7.1-17.6,17.7c0,11.1,7.1,17,16.6,17c4.1,0,7.3-0.8,8.9-1.6
				L1175.5,253.6z M1109.3,258.2v-14.4c0-5.6-0.1-9.7-0.4-13.9l0.2,0c1.7,3.6,3.9,7.5,6.3,11.3l10.7,17.1h4.4v-33.7h-4.1v14.1
				c0,5.3,0.1,9.4,0.5,13.9l-0.1,0c-1.6-3.5-3.5-7-6-10.9l-10.8-17.1h-4.7v33.7H1109.3z M1078.7,258.2h4.3v-33.7h-4.3V258.2z
				 M993.9,258.2h18.7v-3.6h-14.4v-30.1h-4.3V258.2z M955.4,244.2l3.3-9.8c0.7-2.1,1.2-4.1,1.7-6.1h0.1c0.5,2,1,4,1.7,6.2l3.3,9.7
				H955.4z M966.4,247.6l3.6,10.6h4.7l-11.5-33.7h-5.2l-11.4,33.7h4.5l3.5-10.6H966.4z M906,258.2v-14.4c0-5.6-0.1-9.7-0.4-13.9
				l0.2,0c1.7,3.6,4,7.5,6.3,11.3l10.7,17.1h4.4v-33.7h-4.1v14.1c0,5.3,0.1,9.4,0.5,13.9l-0.1,0c-1.6-3.5-3.5-7-6.1-10.9l-10.8-17.1
				h-4.7v33.7H906z M866.1,227.5c7.3,0,10.8,7,10.8,13.7c0,7.7-3.9,14-10.8,14c-6.8,0-10.8-6.5-10.8-13.7
				C855.3,234.1,858.9,227.5,866.1,227.5 M866.3,223.9c-9,0-15.6,7-15.6,17.7c0,10.2,6.2,17.1,15.1,17.1c8.6,0,15.7-6.1,15.7-17.7
				C881.4,231,875.5,223.9,866.3,223.9 M825.9,258.2h4.3v-33.7h-4.3V258.2z M792.6,258.2h4.4v-30h10.3v-3.7h-24.9v3.7h10.3V258.2z
				 M750.6,244.2l3.3-9.8c0.6-2.1,1.2-4.1,1.7-6.1h0.1c0.5,2,1,4,1.7,6.2l3.3,9.7H750.6z M761.6,247.6l3.6,10.6h4.7l-11.5-33.7h-5.2
				l-11.4,33.7h4.5l3.5-10.6H761.6z M701.2,258.2v-14.4c0-5.6-0.1-9.7-0.4-13.9l0.2,0c1.7,3.6,4,7.5,6.3,11.3l10.7,17.1h4.4v-33.7
				h-4.1v14.1c0,5.3,0.1,9.4,0.5,13.9l-0.1,0c-1.6-3.5-3.5-7-6.1-10.9l-10.8-17.1h-4.7v33.7H701.2z M659.7,228
				c0.7-0.2,2.2-0.4,4.3-0.4c4.6,0.1,7.8,2,7.8,6.3c0,3.9-2.9,6.4-7.6,6.4h-4.5V228z M655.4,258.2h4.3v-14.6h4.1
				c4,0.2,5.8,1.9,6.8,6.6c1,4.2,1.7,7.1,2.2,8.1h4.5c-0.7-1.3-1.5-4.6-2.6-9.3c-0.8-3.5-2.3-5.9-4.9-6.8V242
				c3.5-1.2,6.3-4.1,6.3-8.6c0-2.6-1-4.9-2.7-6.4c-2.1-1.9-5.1-2.7-9.8-2.7c-3,0-6.1,0.3-8.3,0.7V258.2z M634.1,238.8H621v-10.7
				h13.8v-3.6h-18.2v33.7h18.9v-3.6H621v-12.2h13.1V238.8z M583.4,258.2h4.4v-30h10.3v-3.7h-24.9v3.7h10.3V258.2z M533.3,258.2
				v-14.4c0-5.6-0.1-9.7-0.4-13.9l0.2,0c1.7,3.6,4,7.5,6.3,11.3l10.7,17.1h4.4v-33.7h-4.1v14.1c0,5.3,0.1,9.4,0.5,13.9l-0.1,0
				c-1.6-3.5-3.6-7-6.1-10.9l-10.8-17.1h-4.7v33.7H533.3z M502.7,258.2h4.3v-33.7h-4.3V258.2z"/>
		</g>
	</g>
	<path class="st2" d="M994.2,201h13.3v-82.2c0-4.7,0.8-9.2,1.9-13.1c5-15.6,19.2-30,36.9-30c21.7,0,33.1,17.8,33.1,41.7V201h13.3
		v-85.6c0-5,1.1-9.4,2.2-13.3c5.3-13.9,18.3-26.4,35-26.4c23.1,0,34.7,17.8,34.7,47.8V201h13.3v-78.6c0-50.6-30.6-57.8-43.6-57.8
		c-14.2,0-23.1,3.9-31.7,10.8c-5,4.2-10,10.3-13.6,18.1h-0.6c-5.8-16.7-20-28.9-38.3-28.9c-21.9,0-34.7,11.1-43.3,26.4h-0.6
		l-0.8-23.3H993c0.8,10.6,1.1,19.7,1.1,31.9V201z M910.8,193c-27.2,0-48.3-25-48.3-58.3c0-28.6,15.3-58.9,49.4-58.9
		c35.3,0,48.9,33.6,48.9,58.1c0,34.2-21.9,59.2-49.7,59.2H910.8z M910.5,204.1c29.4,0,63.6-21.4,63.6-70.8c0-40.8-25-68.6-61.9-68.6
		c-33.1,0-63.1,25.3-63.1,70.8c0,41.7,26.7,68.6,61.1,68.6H910.5z M835.2,184.6c-7.2,3.3-17.5,7.8-33.3,7.8
		c-30.8,0-52.8-22.8-52.8-57.8c0-31.4,18.3-58.6,54.2-58.6c14.7,0,25,3.9,31.4,7.8l4.7-10.8c-5-3.6-18.6-8.3-35-8.3
		c-39.7,0-68.6,28.6-68.6,71.1c0,40,25.6,68.1,63.9,68.1c19.4,0,33.3-5.8,39.2-8.6L835.2,184.6z M698.8,158.3c0,2.2-0.3,5.3-1.4,8.1
		C693,179.4,680.2,193,658,193c-13.9,0-26.7-8.6-26.7-27.8c0-31.9,38.3-36.4,67.5-35.6V158.3z M712.2,117.2
		c0-23.6-7.5-52.5-46.1-52.5c-11.9,0-26.9,3.3-39.2,11.4l4.2,9.7c9.7-6.9,21.9-10,33.6-10c31.7-0.3,34.2,26.1,34.2,39.2v3.6
		c-54.4-0.6-81.4,18.1-81.4,48.9c0,17.8,12.2,36.7,39.2,36.7c21.4,0,36.1-11.9,42.8-22.2h0.6l2,19.2h12.2
		c-1.7-10.3-1.9-21.1-1.9-31.7V117.2z M550.4,201h13.3v-73.6c0-4.4,0.3-8.9,1.1-12.8c3.6-21.4,16.7-37.2,35-37.2
		c2.5,0,4.4,0,6.4,0.3V65.2c-1.7-0.3-3.6-0.6-5.6-0.6c-18.1,0-31.9,13.1-37.8,30h-0.8l-0.6-26.9h-12.2c0.8,13.1,1.1,26.7,1.1,40V201
		z M412.1,67.7l49.4,123.6c1.1,2.8,1.7,4.7,1.7,5.8c0,1.4-0.6,3.1-1.7,5.8c-6.7,15.8-15.6,26.9-22.2,33.6
		c-8.1,7.5-16.7,12.2-23.3,14.7l4.2,11.1c3.1-1.1,12.8-5,23.3-13.9c17.5-15.3,28.9-40,45-81.4l40-99.4h-14.2l-32.5,86.4
		c-4.2,10.8-7.5,21.4-10.3,29.4H471c-2.5-8.3-6.1-19.2-9.7-28.6l-35-87.2H412.1z M393.1,184.6c-7.2,3.3-17.5,7.8-33.3,7.8
		c-30.8,0-52.8-22.8-52.8-57.8c0-31.4,18.3-58.6,54.2-58.6c14.7,0,25,3.9,31.4,7.8l4.7-10.8c-5-3.6-18.6-8.3-35-8.3
		c-39.7,0-68.6,28.6-68.6,71.1c0,40,25.6,68.1,63.9,68.1c19.4,0,33.3-5.8,39.2-8.6L393.1,184.6z"/>
	<g class="st3">
		<path class="st2" d="M1015.8,258.2v-3.6h3.6v3.6c0,1.3-0.2,2.4-0.7,3.2c-0.5,0.8-1.2,1.5-2.3,1.9l-0.9-1.4
			c0.7-0.3,1.2-0.7,1.5-1.3c0.3-0.6,0.5-1.4,0.5-2.5H1015.8z"/>
	</g>
	<g class="st3">
		<path class="st2" d="M1179.8,258.2v-3.6h3.6v3.6H1179.8z"/>
	</g>
</g>
</svg>
